<?xml version="1.0" encoding="utf-8"?>
<!-- Generator: Adobe Illustrator 24.1.3, SVG Export Plug-In . SVG Version: 6.00 Build 0)  -->
<svg version="1.1" xmlns="http://www.w3.org/2000/svg" xmlns:xlink="http://www.w3.org/1999/xlink" x="0px" y="0px"
	 viewBox="0 0 750 453.33" style="enable-background:new 0 0 750 453.33;" xml:space="preserve">
<style type="text/css">
	.st0{fill:#FFE4DA;}
	.st1{fill:#414151;}
</style>
<g id="BACKGROUND">
</g>
<g id="OBJECTS">
	<circle class="st0" cx="538.96" cy="186.07" r="38.05"/>
	<g>
		<path class="st0" d="M639.71,58.44c-0.93-1.98-2.82-2.19-4.35-2.83c-10.76-4.53-21.88-7.87-33.25-10.47
			c-3.36-0.77-5.94-0.2-8.68,1.88c-8.15,6.21-17.06,11.18-26.42,15.34c-2.71,1.21-5.47,2.2-8.46,2.34c-2.05,0.1-3.95-0.34-5.01-2.41
			c-1.05-2.05-0.34-3.87,0.9-5.51c1.55-2.06,3.61-3.56,5.74-5c5.3-3.58,10.9-6.64,17.18-9.29c-1.92-1.69-3.56-1.35-5.01-1.42
			c-7.86-0.35-15.73-0.38-23.58-0.9c-4.64-0.31-7.86,1.46-10.59,4.98c-3.38,4.34-6.88,8.59-10.5,12.72c-2.2,2.5-4.65,4.8-7.72,6.28
			c-1.87,0.9-3.76,1.31-5.55-0.09c-2.08-1.64-1.75-3.83-1.07-5.96c0.85-2.69,2.55-4.87,4.5-6.84c2.06-2.09,4.21-4.07,6.05-6.86
			c-2.21,0.77-4.43,1.5-6.61,2.32c-8.12,3.04-16.4,5.44-25.1,6.06c-4.34,0.31-8.68,0.2-12.79-1.49c-2.41-0.99-4.72-2.3-4.85-5.38
			c-0.12-3.07,1.97-4.5,4.37-5.68c2.69-1.32,5.61-1.75,8.52-2.17c7.98-1.16,16.04-1.38,24.09-1.8c2.53-0.13,5.07-0.32,7.5-0.48
			c0.73-2.28-1.1-2.57-2.06-3.28c-3.5-2.58-6.97-5.19-9.83-8.53c-1.16-1.36-2.34-2.71-2.92-4.44c-0.78-2.31-1.34-4.69,0.5-6.72
			c1.85-2.04,4.24-1.74,6.59-1.06c3.86,1.11,7.18,3.3,10.26,5.78c6.16,4.96,12.26,9.99,18.26,15.15c1.57,1.35,2.98,2.35,5.16,2.3
			c9.83-0.24,19.66,0.24,29.48,0.82c0.57,0.03,1.15,0.01,1.55-0.92c-2.89-3.21-5.96-6.49-8.88-9.9c-3.29-3.83-5.34-8.32-6.29-13.27
			c-0.55-2.87-0.34-5.74,2.34-7.41c2.77-1.73,5.37-0.31,7.55,1.54c5.76,4.91,10.38,10.86,14.68,17.04c2.82,4.06,5.5,8.24,8.05,12.47
			c1.21,2,2.57,3.28,4.96,3.71c13.62,2.46,26.79,6.54,39.6,11.81c0.52,0.21,1.13,0.2,2.08,0.36c0.08-2.44-1.43-4.13-2.26-5.99
			c-2.71-6.07-4.04-12.39-4.04-19c0-0.98,0.11-1.98,0.28-2.95c0.59-3.22,1.52-6.4,5.23-7.07c3.66-0.66,5.8,1.9,7.56,4.65
			c2.39,3.74,3.54,7.97,4.21,12.28c1.14,7.42,2.16,14.87,3.08,22.32c0.29,2.32,0.96,4.02,3.13,5.27
			c13.81,7.92,25.95,17.98,36.97,29.48c0.53,0.56,1.2,0.98,2.09,1.7c1.02-2.72-0.48-4.86-1.03-6.96c-1.45-5.55-3.16-11.05-4-16.73
			c-0.97-6.51-1.03-13.02,1.27-19.31c0.99-2.7,2.4-5.21,5.69-5.16c3.29,0.05,4.69,2.67,5.63,5.34c1.51,4.32,2.09,8.85,2.55,13.37
			c1.21,11.65,1.07,23.31,0.18,34.94c-0.34,4.48,0.74,7.97,3.73,11.33c4.33,4.88,8.31,10.07,12.31,15.23
			c1.26,1.62,3.53,3.79,1.36,5.63c-2.69,2.28-3.99-0.86-5.41-2.58c-4.41-5.34-8.73-10.75-13.21-16.03c-3.12-3.68-3.62-3.72-8-1.61
			c-10.22,4.92-20.9,7.92-32.36,7.62c-2.56-0.07-5.16-0.13-7.5-1.32c-3.03-1.54-3.43-4.54-0.79-6.67c2.32-1.87,5.17-2.78,8-3.61
			c7.93-2.35,16.08-3.6,24.26-4.69c1.88-0.25,3.89-0.01,5.52-1.11c0.26-1.32-0.59-1.94-1.24-2.65
			C683.36,86.08,672.36,76.5,660,68.52c-2.64-1.71-4.85-2.25-8.11-0.95c-12.07,4.81-24.88,5.17-37.71,4.89
			c-1.16-0.03-2.38-0.27-3.45-0.71c-2.94-1.22-3.4-3.87-1.05-6.09c1.61-1.52,3.69-2.16,5.78-2.77c6.05-1.78,12.28-2.61,18.52-3.41
			C635.86,59.24,637.84,59.4,639.71,58.44 M647.69,52.62c1.06-12.08-2.83-27.28-8.07-30.34C637.73,33.7,642.01,43.16,647.69,52.62
			 M701.08,85.2c2.05-10.18,0.17-29.19-3.43-34.99C693.89,62.36,697.43,73.29,701.08,85.2 M586.38,34.7
			c-5.64-8.89-10.84-18.3-20.21-25.35C567.72,19.13,574.65,27.85,586.38,34.7 M481.04,46.31c8.24,2.5,15.97,0.8,23.67-1.27
			c0.33-0.09,0.85-0.63,0.81-0.71c-0.26-0.5-0.62-0.95-1.02-1.36c-1.11-1.13-2.55-0.97-3.89-0.83c-5.26,0.54-10.52,1.13-15.77,1.79
			C483.54,44.09,482.11,44.23,481.04,46.31 M510.5,17.57c2.8,6.79,13.25,14.46,20.78,15.38C524.76,27.32,518.84,20.89,510.5,17.57
			 M561.77,58.3c9.38-2.95,19.59-8.72,24.51-13.89c-7.71,3.55-15.03,6.88-21.91,11.08C563.44,56.06,562.19,56.36,561.77,58.3
			 M688.68,106.75c-7.31,0.48-14.51,1.3-21.25,4.21C674.96,111.73,681.99,109.95,688.68,106.75 M640.68,64.72
			c-4.57-0.14-9.14,0.21-13.98,1.46c1.86,1.16,3.39,0.55,4.83,0.39C634.6,66.23,637.73,66.22,640.68,64.72"/>
		<rect x="108.01" y="247.84" class="st0" width="331.63" height="202.41"/>
		<rect x="108.01" y="69.31" class="st0" width="331.63" height="24.9"/>
		<path class="st1" d="M637.9,72.36c-1.11-1.89-3.01-1.92-4.59-2.42c-11.13-3.52-22.52-5.82-34.07-7.36
			c-3.42-0.46-5.94,0.35-8.47,2.67c-7.54,6.93-15.96,12.7-24.89,17.71c-2.58,1.45-5.25,2.7-8.21,3.12
			c-2.04,0.29-3.97,0.02-5.21-1.93c-1.24-1.95-0.69-3.82,0.38-5.57c1.36-2.2,3.26-3.88,5.25-5.51c4.95-4.05,10.24-7.61,16.25-10.83
			c-2.07-1.51-3.67-1.02-5.12-0.95c-7.86,0.38-15.7,1.08-23.56,1.28c-4.65,0.12-7.69,2.18-10.09,5.94
			c-2.96,4.63-6.06,9.18-9.29,13.63c-1.96,2.69-4.18,5.21-7.11,6.97c-1.78,1.07-3.63,1.66-5.54,0.42c-2.22-1.44-2.09-3.65-1.62-5.84
			c0.6-2.76,2.09-5.09,3.84-7.23c1.86-2.27,3.82-4.44,5.4-7.39c-2.13,0.97-4.27,1.9-6.37,2.92c-7.8,3.77-15.82,6.93-24.43,8.35
			c-4.29,0.71-8.63,1-12.88-0.3c-2.49-0.76-4.92-1.85-5.32-4.91c-0.4-3.04,1.55-4.66,3.83-6.06c2.56-1.56,5.43-2.26,8.29-2.95
			c7.84-1.89,15.85-2.86,23.82-4.01c2.51-0.36,5.01-0.79,7.42-1.17c0.52-2.34-1.33-2.46-2.35-3.08c-3.73-2.25-7.42-4.53-10.58-7.59
			c-1.28-1.25-2.58-2.48-3.32-4.15c-0.99-2.22-1.76-4.54-0.12-6.73c1.65-2.2,4.06-2.12,6.46-1.67c3.95,0.75,7.45,2.62,10.75,4.81
			c6.59,4.37,13.13,8.82,19.58,13.4c1.69,1.2,3.18,2.06,5.35,1.81c9.77-1.14,19.6-1.57,29.43-1.9c0.58-0.02,1.15-0.1,1.46-1.06
			c-3.18-2.93-6.54-5.91-9.76-9.04c-3.63-3.51-6.09-7.79-7.48-12.63c-0.81-2.8-0.87-5.68,1.65-7.59c2.6-1.98,5.32-0.81,7.66,0.84
			c6.19,4.36,11.34,9.85,16.19,15.61c3.19,3.78,6.23,7.7,9.17,11.68c1.38,1.88,2.87,3.03,5.28,3.24c13.79,1.2,27.27,4.04,40.52,8.1
			c0.54,0.16,1.14,0.1,2.1,0.16c-0.14-2.44-1.8-3.98-2.8-5.76c-3.26-5.79-5.16-11.97-5.78-18.55c-0.09-0.98-0.08-1.98,0.01-2.96
			c0.29-3.26,0.92-6.51,4.56-7.52c3.58-0.99,5.95,1.36,7.95,3.93c2.73,3.5,4.26,7.61,5.32,11.84c1.83,7.29,3.52,14.61,5.13,21.94
			c0.5,2.28,1.33,3.91,3.61,4.95c14.48,6.62,27.5,15.51,39.53,25.94c0.58,0.5,1.28,0.87,2.23,1.5c0.77-2.81-0.93-4.79-1.67-6.83
			c-1.96-5.39-4.16-10.71-5.53-16.29c-1.57-6.4-2.23-12.87-0.51-19.35c0.73-2.78,1.91-5.41,5.19-5.66c3.28-0.25,4.92,2.22,6.1,4.8
			c1.9,4.16,2.89,8.62,3.78,13.08c2.28,11.49,3.22,23.11,3.4,34.77c0.07,4.49,1.47,7.87,4.76,10.94c4.76,4.46,9.2,9.26,13.66,14.03
			c1.4,1.5,3.87,3.45,1.87,5.48c-2.47,2.52-4.05-0.49-5.63-2.07c-4.89-4.91-9.68-9.9-14.63-14.75c-3.45-3.37-3.94-3.37-8.12-0.86
			c-9.73,5.84-20.08,9.81-31.52,10.58c-2.55,0.17-5.15,0.34-7.59-0.62c-3.16-1.25-3.83-4.21-1.41-6.56c2.14-2.08,4.9-3.24,7.64-4.34
			c7.68-3.07,15.68-5.07,23.72-6.91c1.85-0.42,3.87-0.37,5.4-1.61c0.14-1.34-0.77-1.88-1.48-2.53
			c-10.87-9.92-22.71-18.44-35.75-25.25c-2.79-1.46-5.04-1.79-8.16-0.2c-11.58,5.91-24.3,7.44-37.1,8.35
			c-1.15,0.08-2.39-0.05-3.5-0.39c-3.04-0.94-3.74-3.54-1.61-5.97c1.46-1.66,3.48-2.49,5.5-3.3c5.86-2.33,11.99-3.73,18.12-5.1
			C634.14,73.51,636.12,73.5,637.9,72.36 M645.31,65.84c-0.06-12.13-5.34-26.9-10.83-29.47C633.65,47.91,638.77,56.94,645.31,65.84
			 M701.48,93.34c1.1-10.33-2.52-29.09-6.64-34.53C692.2,71.27,696.74,81.82,701.48,93.34 M582.6,53.65
			c-6.44-8.34-12.48-17.22-22.46-23.38C562.58,39.87,570.3,47.91,582.6,53.65 M478.78,74.92c8.44,1.73,15.97-0.67,23.45-3.45
			c0.32-0.12,0.79-0.71,0.74-0.78c-0.31-0.47-0.71-0.89-1.14-1.26c-1.21-1.03-2.63-0.73-3.95-0.46c-5.19,1.02-10.37,2.1-15.54,3.24
			C481.07,72.48,479.66,72.75,478.78,74.92 M505.47,43.58c3.42,6.51,14.52,13.18,22.11,13.4C520.57,51.97,514.08,46.12,505.47,43.58
			 M560.27,79.41c9.07-3.8,18.7-10.49,23.13-16.09c-7.35,4.25-14.33,8.23-20.79,13.05C561.73,77.03,560.52,77.44,560.27,79.41
			 M691.11,115.95c-7.23,1.15-14.32,2.63-20.77,6.16C677.92,122.17,684.74,119.75,691.11,115.95 M639.45,78.53
			c-4.56,0.28-9.09,1.05-13.79,2.74c1.96,0.98,3.42,0.23,4.85-0.06C633.52,80.6,636.64,80.29,639.45,78.53"/>
		<g>
			<g>
				<polygon class="st1" points="747.77,371.98 2.23,371.98 2.23,171.19 97.06,171.19 97.06,178.48 9.51,178.48 9.51,364.7 
					740.49,364.7 740.49,178.48 725.2,178.48 725.2,171.19 747.77,171.19 				"/>
			</g>
			<g>
				<g>
					<path class="st1" d="M122.15,139.08h56.63v14.35h-41.64v26.27h36.26v14.22h-36.26v38.44h-14.99V139.08z"/>
					<path class="st1" d="M179.68,232.36l41.26-97.12h0.9l41.26,97.12h-17.17l-28.96-73.8l10.63-7.17l-33.31,80.98H179.68z
						 M205.56,197.64h31.9l5.13,12.81h-41.51L205.56,197.64z"/>
					<path class="st1" d="M327.92,158.05c-3.33-1.71-6.88-3.18-10.63-4.42c-3.76-1.24-7.35-1.86-10.76-1.86
						c-4.61,0-8.26,1.02-10.96,3.08c-2.69,2.05-4.04,4.87-4.04,8.46c0,2.56,0.92,4.8,2.75,6.73c1.84,1.92,4.23,3.59,7.18,5
						c2.95,1.41,6.04,2.75,9.29,4.04c2.82,1.02,5.62,2.24,8.39,3.65c2.77,1.41,5.27,3.14,7.5,5.19c2.22,2.05,3.97,4.59,5.25,7.62
						c1.28,3.03,1.92,6.77,1.92,11.21c0,4.87-1.22,9.33-3.65,13.39c-2.43,4.06-5.96,7.28-10.57,9.67
						c-4.61,2.39-10.21,3.59-16.79,3.59c-3.93,0-7.75-0.43-11.47-1.28c-3.72-0.85-7.24-2.03-10.57-3.52
						c-3.33-1.49-6.41-3.18-9.23-5.06l6.66-11.66c2.05,1.54,4.4,2.95,7.05,4.23c2.65,1.28,5.38,2.31,8.2,3.08
						c2.82,0.77,5.47,1.15,7.94,1.15c2.65,0,5.27-0.45,7.88-1.35c2.6-0.9,4.78-2.33,6.53-4.29c1.75-1.96,2.63-4.57,2.63-7.82
						c0-2.65-0.75-4.91-2.24-6.79c-1.5-1.88-3.48-3.52-5.96-4.93c-2.48-1.41-5.17-2.67-8.07-3.78c-2.9-1.11-5.85-2.35-8.84-3.72
						c-2.99-1.37-5.79-3.05-8.39-5.06c-2.61-2.01-4.72-4.46-6.34-7.37c-1.62-2.9-2.43-6.49-2.43-10.76c0-5.13,1.2-9.57,3.59-13.33
						c2.39-3.76,5.7-6.75,9.93-8.97c4.23-2.22,9.12-3.42,14.67-3.59c6.58,0,12.19,0.79,16.85,2.37c4.65,1.58,8.78,3.48,12.36,5.7
						L327.92,158.05z"/>
					<path class="st1" d="M429.27,139.08v93.28h-14.86v-39.72h-45.87v39.72h-14.99v-93.28h14.99v39.34h45.87v-39.34H429.27z"/>
					<path class="st1" d="M455.03,139.08h14.99v93.28h-14.99V139.08z"/>
					<path class="st1" d="M489.87,185.85c0-6.49,1.24-12.6,3.72-18.32c2.48-5.72,5.89-10.8,10.25-15.25
						c4.36-4.44,9.42-7.92,15.18-10.44c5.77-2.52,11.94-3.78,18.51-3.78c6.49,0,12.62,1.26,18.39,3.78
						c5.77,2.52,10.85,6,15.25,10.44c4.4,4.44,7.86,9.53,10.38,15.25c2.52,5.72,3.78,11.83,3.78,18.32c0,6.58-1.26,12.75-3.78,18.51
						c-2.52,5.77-5.98,10.83-10.38,15.18c-4.4,4.36-9.48,7.75-15.25,10.19c-5.77,2.43-11.9,3.65-18.39,3.65
						c-6.66,0-12.86-1.22-18.58-3.65c-5.72-2.43-10.76-5.81-15.12-10.12c-4.36-4.31-7.77-9.35-10.25-15.12
						C491.11,198.73,489.87,192.51,489.87,185.85z M505.25,185.85c0,4.61,0.83,8.93,2.5,12.94c1.67,4.02,3.99,7.54,6.98,10.57
						c2.99,3.03,6.45,5.4,10.38,7.11c3.93,1.71,8.2,2.56,12.81,2.56c4.44,0,8.6-0.85,12.49-2.56c3.89-1.71,7.28-4.08,10.19-7.11
						c2.9-3.03,5.19-6.55,6.86-10.57c1.67-4.01,2.5-8.33,2.5-12.94c0-4.7-0.85-9.05-2.56-13.07c-1.71-4.01-4.02-7.56-6.92-10.63
						c-2.91-3.08-6.32-5.47-10.25-7.18c-3.93-1.71-8.16-2.56-12.69-2.56c-4.53,0-8.76,0.85-12.68,2.56
						c-3.93,1.71-7.37,4.1-10.31,7.18s-5.23,6.64-6.85,10.7C506.06,176.9,505.25,181.24,505.25,185.85z"/>
					<path class="st1" d="M687.19,235.69l-71.62-69.45l4.36,1.79l0.38,64.32h-15.12v-96.48h0.77l70.47,69.45l-3.46-1.03l-0.26-65.22
						h14.86v96.61H687.19z"/>
				</g>
			</g>
			<g>
				<g>
					<path class="st1" d="M151.33,272.89c-1.46-0.71-3.26-1.37-5.39-1.98c-2.13-0.61-4.25-0.92-6.38-0.92
						c-3.31,0-5.95,0.83-7.94,2.48s-2.98,3.73-2.98,6.24c0,1.89,0.57,3.46,1.7,4.71c1.13,1.25,2.62,2.31,4.46,3.19
						s3.8,1.71,5.88,2.51c1.65,0.62,3.29,1.3,4.92,2.06s3.11,1.68,4.43,2.76c1.32,1.09,2.37,2.43,3.15,4.04
						c0.78,1.61,1.17,3.59,1.17,5.95c0,2.79-0.66,5.26-1.98,7.4c-1.32,2.15-3.17,3.82-5.53,5c-2.36,1.18-5.1,1.77-8.22,1.77
						c-2.5,0-4.78-0.31-6.84-0.92c-2.06-0.61-3.85-1.33-5.39-2.16c-1.54-0.83-2.75-1.52-3.65-2.09l1.63-2.83
						c1.04,0.76,2.3,1.51,3.79,2.27c1.49,0.76,3.11,1.39,4.85,1.91c1.75,0.52,3.5,0.78,5.24,0.78c2.03,0,4-0.4,5.92-1.2
						c1.91-0.8,3.5-2.02,4.75-3.65c1.25-1.63,1.88-3.7,1.88-6.2c0-2.41-0.59-4.36-1.77-5.85c-1.18-1.49-2.69-2.7-4.53-3.65
						c-1.84-0.94-3.8-1.79-5.88-2.55c-1.61-0.61-3.21-1.26-4.82-1.95c-1.61-0.68-3.07-1.51-4.39-2.48
						c-1.32-0.97-2.37-2.14-3.15-3.51c-0.78-1.37-1.17-3.02-1.17-4.96c0-2.41,0.61-4.51,1.84-6.31c1.23-1.79,2.89-3.2,5-4.22
						c2.1-1.02,4.5-1.55,7.19-1.59c2.36,0,4.76,0.31,7.19,0.92c2.43,0.61,4.55,1.39,6.34,2.34L151.33,272.89z"/>
					<path class="st1" d="M185.06,267.22h32.95v3.33H203.2v46.98h-3.47v-46.98h-14.67V267.22z"/>
					<path class="st1" d="M248.55,292.45c0-3.54,0.66-6.86,1.98-9.96c1.32-3.09,3.16-5.83,5.53-8.22c2.36-2.38,5.09-4.25,8.18-5.6
						c3.09-1.35,6.41-2.02,9.96-2.02c3.54,0,6.87,0.67,9.99,2.02c3.12,1.35,5.86,3.21,8.22,5.6c2.36,2.39,4.22,5.13,5.56,8.22
						c1.35,3.09,2.02,6.41,2.02,9.96s-0.67,6.86-2.02,9.96c-1.35,3.09-3.2,5.82-5.56,8.18c-2.36,2.36-5.1,4.21-8.22,5.53
						c-3.12,1.32-6.45,1.98-9.99,1.98c-3.54,0-6.86-0.64-9.96-1.91c-3.09-1.28-5.82-3.07-8.18-5.38c-2.36-2.31-4.21-5.03-5.53-8.15
						C249.21,299.53,248.55,296.13,248.55,292.45z M252.09,292.52c0,3.07,0.57,5.95,1.7,8.64s2.72,5.06,4.75,7.09
						c2.03,2.03,4.38,3.63,7.05,4.78c2.67,1.16,5.51,1.74,8.54,1.74c3.12,0,6.02-0.58,8.72-1.74c2.69-1.16,5.05-2.75,7.09-4.78
						c2.03-2.03,3.62-4.39,4.78-7.09c1.16-2.69,1.74-5.6,1.74-8.71c0-3.07-0.58-5.96-1.74-8.68c-1.16-2.72-2.75-5.1-4.78-7.16
						c-2.03-2.05-4.39-3.67-7.09-4.85c-2.69-1.18-5.57-1.77-8.64-1.77c-3.12,0-6.02,0.6-8.72,1.81c-2.69,1.21-5.04,2.85-7.05,4.92
						c-2.01,2.08-3.57,4.48-4.68,7.19C252.64,286.63,252.09,289.5,252.09,292.52z"/>
					<path class="st1" d="M346.05,267.22c1.89,0,3.77,0.27,5.63,0.82c1.87,0.54,3.57,1.39,5.1,2.55c1.53,1.16,2.77,2.63,3.72,4.43
						c0.94,1.79,1.42,3.94,1.42,6.45c0,1.89-0.28,3.72-0.85,5.49c-0.57,1.77-1.49,3.37-2.76,4.78s-2.93,2.55-4.96,3.4
						c-2.03,0.85-4.53,1.28-7.51,1.28h-7.79v21.12h-3.47v-50.31H346.05z M345.62,293.09c2.5,0,4.58-0.35,6.24-1.06
						c1.65-0.71,2.95-1.63,3.9-2.76c0.94-1.13,1.62-2.37,2.02-3.72c0.4-1.35,0.6-2.66,0.6-3.93c0-1.51-0.27-2.93-0.81-4.25
						c-0.54-1.32-1.34-2.49-2.37-3.51c-1.04-1.01-2.29-1.82-3.76-2.41c-1.46-0.59-3.09-0.89-4.89-0.89h-8.5v22.53H345.62z
						 M352.85,294.64l13.96,22.89h-4.04l-14.03-22.82L352.85,294.64z"/>
					<path class="st1" d="M401.17,267.22h31.04v3.33h-27.56v19.98h24.8v3.33h-24.8v20.34h28.56v3.33h-32.03V267.22z"/>
				</g>
			</g>
			<g>
				<rect x="451.94" y="308.95" class="st1" width="250.12" height="2.73"/>
			</g>
			<path class="st1" d="M536.37,172.5c-17.46,0-17.37,27.15,0.15,27.15C553.97,199.64,553.88,172.5,536.37,172.5z"/>
		</g>
		<g>
			<g>
				<path class="st1" d="M466.35,401.81c-0.57-0.29-1.19-0.54-1.87-0.76s-1.33-0.32-1.98-0.32c-0.89,0-1.6,0.21-2.13,0.62
					c-0.53,0.41-0.79,0.97-0.79,1.66c0,0.52,0.17,0.96,0.51,1.32c0.34,0.36,0.78,0.67,1.33,0.93c0.55,0.26,1.13,0.51,1.73,0.74
					c0.52,0.2,1.04,0.42,1.54,0.67c0.51,0.25,0.96,0.55,1.37,0.92c0.41,0.37,0.73,0.82,0.97,1.36c0.24,0.54,0.36,1.21,0.36,2
					c0,0.88-0.22,1.67-0.66,2.39s-1.06,1.29-1.88,1.7c-0.81,0.41-1.78,0.62-2.9,0.62c-0.74,0-1.44-0.08-2.11-0.25
					s-1.29-0.39-1.85-0.66c-0.57-0.27-1.08-0.55-1.52-0.84l0.99-1.75c0.37,0.26,0.79,0.51,1.27,0.75s0.97,0.43,1.5,0.58
					c0.52,0.15,1.03,0.22,1.52,0.22c0.52,0,1.04-0.1,1.55-0.29c0.51-0.19,0.94-0.49,1.28-0.89c0.34-0.4,0.51-0.93,0.51-1.59
					c0-0.57-0.15-1.04-0.45-1.42c-0.3-0.38-0.7-0.7-1.19-0.97s-1.01-0.51-1.57-0.73c-0.52-0.2-1.05-0.42-1.59-0.66
					c-0.54-0.24-1.04-0.53-1.5-0.88c-0.46-0.34-0.83-0.77-1.11-1.28c-0.28-0.51-0.41-1.12-0.41-1.84c0-0.88,0.21-1.64,0.63-2.29
					s1-1.17,1.74-1.54c0.74-0.38,1.58-0.58,2.53-0.61c1.08,0,2.02,0.13,2.84,0.39c0.82,0.26,1.55,0.58,2.18,0.97L466.35,401.81z"/>
				<path class="st1" d="M471.14,398.84h2.23v16.65h-2.23V398.84z"/>
				<path class="st1" d="M492.58,416.02l-12.87-13.06l0.64,0.16l0.05,12.37h-2.23v-17.16h0.12l12.73,13.1l-0.53-0.12l-0.05-12.48
					h2.21v17.18H492.58z"/>
				<path class="st1" d="M509.67,414.25c-0.28,0.18-0.65,0.39-1.13,0.62c-0.48,0.23-1.03,0.42-1.67,0.58
					c-0.64,0.15-1.33,0.23-2.08,0.23c-1.29-0.02-2.45-0.25-3.49-0.69s-1.92-1.05-2.64-1.82c-0.72-0.77-1.28-1.65-1.67-2.66
					c-0.39-1.01-0.59-2.08-0.59-3.21c0-1.24,0.2-2.39,0.61-3.44c0.41-1.05,0.98-1.96,1.72-2.74c0.74-0.78,1.61-1.38,2.61-1.81
					s2.11-0.64,3.3-0.64c1,0,1.9,0.13,2.72,0.4c0.81,0.27,1.51,0.59,2.1,0.96l-0.9,2.07c-0.46-0.31-1.02-0.6-1.67-0.88
					s-1.38-0.41-2.18-0.41c-0.81,0-1.58,0.16-2.3,0.48c-0.72,0.32-1.36,0.78-1.91,1.36c-0.55,0.58-0.99,1.26-1.3,2.04
					s-0.47,1.61-0.47,2.5c0,0.91,0.14,1.75,0.43,2.52s0.69,1.45,1.22,2.01c0.53,0.57,1.17,1.01,1.92,1.33
					c0.75,0.32,1.6,0.48,2.53,0.48c0.84,0,1.6-0.13,2.26-0.39c0.66-0.26,1.2-0.55,1.63-0.88L509.67,414.25z"/>
				<path class="st1" d="M513.42,398.84h10.82v2.14h-8.59v5.07h7.67v2.14h-7.67v5.16h8.91v2.14h-11.15V398.84z"/>
				<path class="st1" d="M556.37,415.49c0.98-0.95,1.92-1.89,2.81-2.81c0.89-0.92,1.69-1.81,2.41-2.67s1.28-1.69,1.69-2.5
					c0.41-0.81,0.62-1.58,0.62-2.34c0-0.51-0.08-0.94-0.25-1.3s-0.39-0.66-0.66-0.89s-0.57-0.4-0.91-0.52
					c-0.34-0.12-0.68-0.17-1.04-0.17c-0.51,0-0.94,0.08-1.29,0.24s-0.64,0.37-0.86,0.63c-0.22,0.26-0.38,0.54-0.48,0.83
					c-0.1,0.29-0.15,0.58-0.15,0.88c0,0.51,0.08,0.96,0.23,1.37c0.15,0.41,0.38,0.76,0.67,1.07l-1.38,1.22
					c-0.35-0.23-0.66-0.55-0.91-0.97c-0.25-0.41-0.45-0.86-0.58-1.35s-0.2-0.92-0.2-1.3c0-0.83,0.2-1.61,0.61-2.34
					c0.41-0.73,1-1.32,1.8-1.76c0.79-0.44,1.75-0.67,2.89-0.67c0.97,0,1.81,0.22,2.53,0.67c0.72,0.45,1.28,1.03,1.68,1.76
					c0.4,0.73,0.6,1.53,0.6,2.41c0,0.77-0.15,1.52-0.46,2.26c-0.31,0.74-0.72,1.47-1.23,2.19c-0.51,0.72-1.08,1.43-1.7,2.13
					c-0.62,0.7-1.24,1.4-1.85,2.11l-0.97-0.32h6.72v2.14H556.37z"/>
				<path class="st1" d="M574.88,415.56c-0.94,0-1.8-0.18-2.58-0.53c-0.78-0.35-1.46-0.86-2.01-1.53c-0.56-0.67-0.99-1.48-1.3-2.43
					c-0.31-0.95-0.46-2.02-0.46-3.2c0-1.29,0.15-2.41,0.44-3.37c0.29-0.96,0.72-1.76,1.28-2.41c0.56-0.64,1.23-1.12,2.01-1.44
					c0.78-0.31,1.66-0.47,2.63-0.47c0.94,0,1.79,0.18,2.57,0.53c0.78,0.35,1.44,0.86,2,1.53c0.56,0.67,1,1.47,1.31,2.42
					c0.31,0.94,0.47,2.02,0.47,3.21c0,1.21-0.16,2.29-0.47,3.25c-0.32,0.95-0.75,1.76-1.31,2.42c-0.56,0.66-1.23,1.16-2,1.51
					S575.82,415.56,574.88,415.56z M574.86,413.42c0.89,0,1.64-0.23,2.25-0.7c0.61-0.47,1.06-1.13,1.37-1.97
					c0.31-0.84,0.46-1.82,0.46-2.92s-0.15-2.07-0.46-2.89c-0.31-0.82-0.76-1.46-1.37-1.92c-0.61-0.46-1.36-0.69-2.25-0.69
					c-0.89,0-1.63,0.23-2.23,0.7c-0.6,0.47-1.05,1.12-1.35,1.95c-0.3,0.83-0.45,1.8-0.45,2.9c0,1.09,0.15,2.05,0.45,2.89
					c0.3,0.84,0.75,1.49,1.35,1.96C573.22,413.18,573.97,413.42,574.86,413.42z"/>
				<path class="st1" d="M583.26,415.49c0.98-0.95,1.92-1.89,2.81-2.81c0.89-0.92,1.69-1.81,2.41-2.67s1.28-1.69,1.69-2.5
					c0.41-0.81,0.62-1.58,0.62-2.34c0-0.51-0.08-0.94-0.25-1.3s-0.39-0.66-0.66-0.89s-0.57-0.4-0.91-0.52
					c-0.34-0.12-0.68-0.17-1.04-0.17c-0.51,0-0.94,0.08-1.29,0.24s-0.64,0.37-0.86,0.63c-0.22,0.26-0.38,0.54-0.48,0.83
					c-0.1,0.29-0.15,0.58-0.15,0.88c0,0.51,0.08,0.96,0.23,1.37c0.15,0.41,0.38,0.76,0.67,1.07l-1.38,1.22
					c-0.35-0.23-0.66-0.55-0.91-0.97c-0.25-0.41-0.45-0.86-0.58-1.35s-0.2-0.92-0.2-1.3c0-0.83,0.2-1.61,0.61-2.34
					c0.41-0.73,1-1.32,1.8-1.76c0.79-0.44,1.75-0.67,2.89-0.67c0.97,0,1.81,0.22,2.53,0.67c0.72,0.45,1.28,1.03,1.68,1.76
					c0.4,0.73,0.6,1.53,0.6,2.41c0,0.77-0.15,1.52-0.46,2.26c-0.31,0.74-0.72,1.47-1.23,2.19c-0.51,0.72-1.08,1.43-1.7,2.13
					c-0.62,0.7-1.24,1.4-1.85,2.11l-0.97-0.32h6.72v2.14H583.26z"/>
				<path class="st1" d="M595.81,400.34h3.96v15.15h-2.23v-13.01h-1.73V400.34z"/>
			</g>
		</g>
		<path class="st0" d="M541.05,402.88c-5.66,0-5.63,8.79,0.05,8.79C546.75,411.67,546.72,402.88,541.05,402.88z"/>
	</g>
</g>
</svg>
